PathFileType	4	(X/Y/Z)	C:\Users\Basilio\Documents\Thesis Gigler\squatting_fais\c3dfiles\019\SLS_back_pre2\markers_experimental.trc
DataRate	CameraRate	NumFrames	NumMarkers	Units	OrigDataRate	OrigDataStartFrame	OrigNumFrames
200.000000	200.000000	4	59	mm	200.000000	1111	1482
Frame#	Time	FHD			LBHD			RBHD			C7			T10			CLAV			LSHO			LUUPA			LMUPA			LDUPA			LLEP			LMEP			LRAD			LUL			LRFIN			RSHO			RUPA1			RMUPA			RDUPA			RLEP			RMEP			RRAD			RUL			RUFIN			LASI			RASI			USACR			LSACR			RSACR			LTHI1			LTHI2			LTHI3			LTHI4			LLFC			LTIB1			LTIB2			LTIB3			LTIB4			LLMAL			LMMAL			LHEE			LMT1			LMT2			LMT5			RTHI			RTHI2			RTHI3			RTHI4			RLFC			RTIB1			RTIB2			RTIB3			RTIB4			RLMAL			RMMAL			RHEE			RMT1			RMT2			RMT5			
		X1	Y1	Z1	X2	Y2	Z2	X3	Y3	Z3	X4	Y4	Z4	X5	Y5	Z5	X6	Y6	Z6	X7	Y7	Z7	X8	Y8	Z8	X9	Y9	Z9	X10	Y10	Z10	X11	Y11	Z11	X12	Y12	Z12	X13	Y13	Z13	X14	Y14	Z14	X15	Y15	Z15	X16	Y16	Z16	X17	Y17	Z17	X18	Y18	Z18	X19	Y19	Z19	X20	Y20	Z20	X21	Y21	Z21	X22	Y22	Z22	X23	Y23	Z23	X24	Y24	Z24	X25	Y25	Z25	X26	Y26	Z26	X27	Y27	Z27	X28	Y28	Z28	X29	Y29	Z29	X30	Y30	Z30	X31	Y31	Z31	X32	Y32	Z32	X33	Y33	Z33	X34	Y34	Z34	X35	Y35	Z35	X36	Y36	Z36	X37	Y37	Z37	X38	Y38	Z38	X39	Y39	Z39	X40	Y40	Z40	X41	Y41	Z41	X42	Y42	Z42	X43	Y43	Z43	X44	Y44	Z44	X45	Y45	Z45	X46	Y46	Z46	X47	Y47	Z47	X48	Y48	Z48	X49	Y49	Z49	X50	Y50	Z50	X51	Y51	Z51	X52	Y52	Z52	X53	Y53	Z53	X54	Y54	Z54	X55	Y55	Z55	X56	Y56	Z56	X57	Y57	Z57	X58	Y58	Z58	X59	Y59	Z59	

1112	5.555	-189.8267517089844	1691.116577148438	-663.9804077148439	-317.5374450683594	1650.802124023438	-804.8275146484377	-319.3519287109376	1645.363037109375	-664.9216918945314	-348.2739868164063	1485.671264648438	-715.7109985351564	-421.6963806152345	1206.84423828125	-708.7482299804689	-214.9192352294922	1427.35205078125	-726.0914916992189	-271.9469299316407	1483.762817382813	-858.2786865234377	-153.8711700439453	1431.196166992188	-917.5155029296877	-127.6029739379883	1427.220947265625	-876.2749023437502	-88.50061035156251	1417.675170898438	-920.8841552734377	-24.57972145080567	1369.705810546875	-948.4721679687502	-35.55290985107423	1315.746337890625	-926.1938476562502	217.8059844970704	1370.5537109375	-877.5853271484377	220.4209594726563	1323.200073242188	-923.2485961914065	292.0153808593751	1385.256103515625	-884.840026855469	-256.0627441406251	1473.353393554688	-595.0579223632814	-142.1883087158203	1380.613403320313	-503.5604553222657	-115.7209548950196	1405.330200195313	-535.6721801757814	-77.84124755859376	1363.271362304688	-511.6405029296876	-4.079989433288575	1345.711547851563	-526.8590698242189	-21.38139533996582	1296.021240234375	-548.8965454101564	231.4746856689454	1373.961181640625	-604.2134399414064	246.7590332031251	1322.589111328125	-561.7131347656251	317.4924316406251	1381.665405273438	-592.8690185546876	-325.5252380371094	991.8763427734377	-844.8132324218752	-298.1366577148438	969.3735961914065	-644.0438842773439	-450.5758361816407	1078.019653320313	-715.9031982421876	-466.3994750976564	1050.411254882813	-744.5808715820314	-455.3609313964845	1045.707153320313	-687.8400878906251	-324.2856445312501	764.4098510742189	-945.1289672851565	-254.4181213378907	713.8778076171876	-953.7913208007815	-215.0055389404297	733.0382690429689	-937.3978271484377	-254.5903015136719	652.0264282226564	-951.8792114257815	-231.6612548828126	574.6054077148439	-938.7918090820315	-306.1731262207032	468.7408142089845	-888.339050292969	-371.5740966796876	497.2959594726564	-939.2672119140627	-359.1705627441407	466.8370361328126	-912.0947875976565	-429.8554077148439	446.4516601562501	-865.1494140625002	-578.7722778320314	472.2933959960939	-880.8527832031252	-553.1835327148439	470.0840148925782	-797.9340820312502	-628.5793457031251	526.6860351562501	-832.7888793945315	-586.0449829101564	324.5818481445313	-781.3355102539065	-593.7671508789064	313.1604919433594	-817.751159667969	-632.7327880859376	338.7977905273438	-869.9891357421877	-327.8345336914063	772.935485839844	-572.8292236328126	-280.2275695800782	735.8804931640626	-584.5295410156251	-256.0187988281251	746.2064208984376	-611.1483154296876	-281.6443176269532	651.6925048828126	-591.3432617187501	-285.4524230957032	495.4837341308595	-637.4525146484376	-269.5777282714844	321.4579772949219	-717.3121948242189	-330.1633911132813	244.9217529296876	-665.0985107421876	-299.1605529785157	240.8611907958985	-700.8043823242189	-318.6754150390626	206.1129608154297	-743.7527465820314	-388.7241210937501	127.0556411743164	-703.1253051757814	-376.1035156250001	135.8500518798828	-779.6419067382815	-457.8964233398439	106.3057403564453	-754.6597900390626	-259.7582702636719	55.22273635864259	-784.7884521484377	-253.9009704589844	60.36912918090822	-739.5279541015626	-292.7806091308594	48.92674636840822	-684.1975097656251	
1113	5.56	-191.053955078125	1693.943603515625	-664.0443725585939	-319.1483459472657	1653.611694335938	-804.9611816406252	-320.5154724121094	1648.241088867188	-664.9945068359376	-355.1704101562501	1489.465942382813	-719.2346801757814	-421.6199340820314	1208.827270507813	-708.4549560546876	-216.0274810791016	1430.1416015625	-726.1541137695314	-273.5160217285157	1486.076782226563	-858.8533935546877	-155.2006988525391	1433.224609375	-917.823669433594	-129.1437072753907	1429.106201171875	-876.4732666015627	-89.7905731201172	1419.58447265625	-921.1599121093752	-25.97758865356446	1371.62646484375	-948.7131958007815	-36.89824676513673	1317.5595703125	-926.447937011719	216.5899505615235	1372.164428710938	-877.6884765625002	219.2032012939454	1324.757690429688	-923.430114746094	289.9639587402344	1387.11328125	-885.035583496094	-257.0305480957032	1476.062622070313	-595.0079345703126	-143.6272888183594	1382.616821289063	-503.5455017089845	-117.1043243408203	1407.194946289063	-535.5071411132814	-79.3156204223633	1365.108032226563	-511.5476684570314	-5.696941852569581	1347.577026367188	-526.6873168945314	-23.10110664367676	1297.619262695313	-548.9678344726564	230.1325988769532	1375.041015625	-603.9623413085939	245.3723297119141	1323.531494140625	-561.4528808593751	316.0930786132813	1382.638305664063	-592.5583496093751	-324.4523620605469	994.2883911132815	-844.701843261719	-296.8974914550782	971.6457519531252	-644.0004272460939	-449.7752380371095	1080.009765625	-715.4366455078126	-465.6111145019532	1052.182495117188	-744.2211303710939	-454.3433227539064	1047.4677734375	-687.5169677734376	-322.9023742675782	766.4444580078126	-945.0314941406252	-253.2983703613282	716.0737304687501	-953.6455688476565	-213.7877502441407	735.3029785156251	-937.2952270507815	-253.4710083007813	654.3265991210939	-951.761901855469	-230.8258666992188	576.8787841796876	-938.706726074219	-304.9212951660157	470.8457031250001	-888.1378173828127	-370.6492614746094	499.403045654297	-938.9692993164065	-357.7225036621094	468.7544250488282	-911.8061523437502	-429.4028930664064	452.4895935058595	-866.5463867187502	-577.3659667968751	473.7490234375001	-880.4050292968752	-551.8180541992189	471.6105041503907	-797.4829101562502	-627.1036987304689	527.9906005859376	-832.2324218750002	-584.3243408203126	325.8975830078126	-781.0098266601565	-592.1102294921876	314.0324096679688	-817.3845825195315	-631.4199218750001	340.4170227050782	-869.5708618164065	-327.2479858398438	774.4439086914065	-572.8684082031251	-279.2778015136719	736.9034423828126	-586.0909423828126	-255.924789428711	747.0787963867189	-611.5068969726564	-282.5482788085938	652.9542236328126	-591.6761474609376	-288.1757812500001	496.7184448242189	-637.6293334960939	-271.2787170410157	322.4797973632813	-717.3717041015626	-331.1888427734376	245.4551696777344	-664.9762573242189	-300.2913208007813	241.564193725586	-700.7643432617189	-319.4539489746094	206.8658905029297	-743.6909790039064	-389.0040283203126	127.1580963134766	-703.1663818359376	-376.3643188476563	135.939193725586	-779.6091308593752	-457.9016723632814	106.3483428955078	-754.5999755859376	-259.8363342285157	55.25285720825197	-784.830017089844	-253.7906646728516	60.47331619262697	-739.4810791015626	-292.7759399414063	48.95416641235353	-684.2130126953126	
1114	5.565	-191.8552703857422	1697.177856445313	-665.4091796875001	-320.9568176269532	1656.426635742188	-805.0945434570315	-321.7070617675782	1650.573486328125	-665.1228637695314	-350.7827453613282	1490.353759765625	-716.0215454101564	-421.5969543457032	1210.8232421875	-708.1318969726564	-217.1328887939454	1433.210083007813	-726.2189331054689	-274.4432067871094	1488.225219726563	-858.9182739257815	-156.431137084961	1435.298583984375	-918.0989990234377	-130.3304290771485	1431.239501953125	-876.8713378906252	-91.11093902587892	1421.565795898438	-921.4208984375002	-27.25927925109864	1373.346313476563	-948.9426269531252	-38.42246246337891	1319.46728515625	-926.694274902344	215.2063598632813	1373.764770507813	-877.8394775390627	217.6605377197266	1326.326293945313	-923.601013183594	289.2579956054688	1388.597778320313	-885.1057739257815	-258.1552734375001	1477.995971679688	-594.7672119140626	-147.0054626464844	1380.850952148438	-501.753631591797	-118.3719863891602	1409.160522460938	-535.4851684570314	-80.5853958129883	1367.000610351563	-511.3943481445314	-7.131404399871828	1349.072875976563	-526.3717041015626	-24.76231575012208	1299.310913085938	-549.2224731445314	228.8168945312501	1376.199462890625	-603.7929077148439	243.9753417968751	1324.500610351563	-561.2734985351564	314.7296752929688	1383.631103515625	-592.2935180664064	-323.5876770019532	996.7852783203127	-844.5618286132815	-295.6590576171876	973.8609619140627	-643.9173583984376	-449.1541137695314	1081.710205078125	-715.1383666992189	-464.4183654785157	1053.8359375	-743.9669799804689	-453.5694885253907	1049.262451171875	-687.2949829101564	-321.6722412109376	768.5935058593752	-944.928161621094	-252.5611877441407	718.3499145507814	-953.5835571289065	-212.4609527587891	737.2985839843751	-937.165466308594	-252.1567077636719	656.2879638671876	-951.6282348632815	-229.3920288085938	578.8078002929689	-938.6104736328127	-303.3964233398438	472.6202087402345	-888.208435058594	-369.1275024414063	501.1090393066407	-938.677917480469	-356.4521789550782	470.7026672363282	-911.7407836914065	-428.3566894531251	454.3619689941407	-865.7606201171877	-575.9805908203126	475.1556396484376	-879.892028808594	-550.2842407226564	472.9398803710939	-797.0596313476565	-625.7083740234376	529.2269897460939	-831.6257934570315	-582.5673828125001	327.2524414062501	-780.701354980469	-590.2551879882814	315.4766540527344	-816.8630371093752	-629.6010742187501	341.6652832031251	-869.1236572265627	-326.4894104003907	775.9959716796877	-573.0283813476564	-278.1980895996094	737.7667236328126	-587.6768188476564	-255.7073974609376	747.8746337890626	-611.8881835937501	-283.3294372558594	654.0711669921876	-591.8096923828126	-290.3035583496094	497.4625244140626	-637.6049804687501	-272.7259521484376	323.3900756835938	-717.4230346679689	-332.2872924804688	246.0814361572266	-665.0701904296876	-301.0884094238282	242.3185119628907	-700.7722778320314	-320.2648315429688	207.5259857177735	-743.6798706054689	-389.143524169922	127.191879272461	-703.1849975585939	-376.4827575683594	135.9684753417969	-779.5650024414065	-457.9677734375001	106.3799209594727	-754.5758056640626	-259.8141784667969	55.28501129150392	-784.7839965820315	-253.8508605957032	60.41610336303712	-739.5121459960939	-292.7243957519532	49.01530075073244	-684.1717529296876	
1115	5.57	-193.3805084228516	1698.773315429688	-664.4571533203126	-321.6402587890626	1658.7578125	-805.0076293945315	-323.0120849609376	1653.183471679688	-665.1934814453126	-351.9583129882813	1492.578125	-716.1721191406251	-421.5073547363282	1212.650390625	-707.8943481445314	-218.4310913085938	1435.743286132813	-726.3886108398439	-275.9206237792969	1490.335327148438	-859.250915527344	-157.5707702636719	1437.247314453125	-918.4802856445315	-131.7494049072266	1433.162719726563	-877.1651000976565	-92.14547729492189	1423.232177734375	-921.601745605469	-28.60100936889649	1375.137817382813	-949.2463989257815	-39.71908569335938	1321.232055664063	-926.9459228515627	213.7408447265626	1375.304931640625	-878.010192871094	216.2812652587891	1328.031372070313	-923.7266845703127	287.3617553710938	1389.974365234375	-885.2319335937502	-259.4921264648438	1480.3564453125	-594.8604736328126	-148.394760131836	1382.906982421875	-501.5651855468751	-119.8680419921875	1411.386596679688	-535.5133056640626	-82.1694793701172	1368.740112304688	-511.3924255371095	-8.507895469665529	1350.758666992188	-526.4300537109376	-26.27397537231446	1301.15185546875	-548.5484619140626	227.4011993408204	1377.211303710938	-603.4772338867189	242.3503112792969	1325.605224609375	-561.1610107421876	313.3355712890626	1384.679321289063	-591.9330444335939	-322.2968750000001	998.9957275390627	-844.3035278320315	-294.4423828125001	975.981628417969	-643.7660522460939	-448.2154846191407	1083.585205078125	-714.7476806640626	-463.8705139160157	1055.57275390625	-743.6429443359376	-452.6210327148439	1050.966796875	-686.9738769531251	-320.3251953125001	770.6367187500002	-944.826599121094	-250.9032897949219	720.2198486328126	-953.5303344726565	-211.1416625976563	739.3267211914064	-937.0878906250002	-250.9474487304688	658.4021606445314	-951.5852661132815	-228.1687927246094	580.7963256835939	-938.5218505859377	-302.3018798828126	473.8118896484376	-888.0371093750002	-368.2296447753907	503.2380676269532	-938.2916259765627	-355.2972412109376	472.6763610839845	-911.6394042968752	-427.1059570312501	456.080291748047	-865.423767089844	-574.6524658203126	476.6529846191407	-879.401062011719	-548.8293457031251	474.4595336914064	-796.601013183594	-624.5120849609376	530.7117919921876	-831.0640869140627	-580.8026733398439	328.7500305175782	-780.4010009765627	-588.5244750976564	316.8141174316407	-816.6900634765627	-628.1679077148439	343.0726013183594	-868.787292480469	-325.8684692382813	777.524353027344	-573.2100830078126	-276.7586975097657	738.8068237304689	-588.9435424804689	-254.0720367431641	749.4225463867189	-611.8570556640626	-284.1249389648438	655.1901245117189	-592.0157470703126	-292.8146362304688	498.6569824218751	-637.8040161132814	-274.6818237304688	324.4354553222657	-717.4223632812501	-333.3238830566407	246.7298583984376	-665.2268676757814	-302.1585693359376	243.1032409667969	-700.7228393554689	-321.0123596191407	208.1400909423829	-743.6036987304689	-389.3604431152345	127.2738037109375	-703.1790161132814	-376.7031555175782	136.0714416503907	-779.5314941406252	-457.9942626953126	106.3302688598633	-754.5959472656251	-259.8559875488282	55.31325149536134	-784.7461547851565	-253.8568878173829	60.54296875000001	-739.5125122070314	-292.7556762695313	49.04025268554689	-684.1670532226564	
